<svg width="24" height="28" viewBox="0 0 24 28" fill="none" xmlns="http://www.w3.org/2000/svg">
<path d="M21.7938 24.4984C20.6173 26.2343 19.3699 27.9281 17.4704 27.9561C15.5709 27.9981 14.9614 26.8502 12.8068 26.8502C10.638 26.8502 9.97177 27.9281 8.17152 27.9981C6.31458 28.0681 4.91124 26.1503 3.72053 24.4564C1.29658 20.9986 -0.560364 14.629 1.93446 10.3453C3.1677 8.21745 5.37902 6.87354 7.77462 6.83155C9.58904 6.80355 11.3184 8.04947 12.4382 8.04947C13.5439 8.04947 15.6418 6.55157 17.839 6.77555C18.7604 6.81755 21.3402 7.13953 22.9987 9.54737C22.8711 9.63136 19.9227 11.3392 19.9511 14.881C19.9936 19.1087 23.7075 20.5226 23.75 20.5366C23.7075 20.6346 23.1546 22.5525 21.7938 24.4984ZM13.6998 2.09986C14.7346 0.937938 16.4498 0.0559963 17.8673 0C18.0516 1.63789 17.3854 3.28978 16.3931 4.4657C15.415 5.65562 13.7991 6.57956 12.2114 6.45357C11.9988 4.84368 12.7926 3.16379 13.6998 2.09986Z" fill="black"/>
</svg>
