<svg width="34" height="24" viewBox="0 0 34 24" fill="none" xmlns="http://www.w3.org/2000/svg">
<path d="M5.87174 11.16C4.84774 11.16 3.92508 10.9093 3.10374 10.408C2.28241 9.896 1.62641 9.22933 1.13574 8.408C0.655742 7.576 0.415742 6.68 0.415742 5.72C0.415742 4.728 0.655742 3.82133 1.13574 3C1.62641 2.17867 2.28241 1.52267 3.10374 1.032C3.93574 0.530666 4.85841 0.279999 5.87174 0.279999C6.90641 0.279999 7.83441 0.535999 8.65574 1.048C9.47708 1.54933 10.1224 2.21067 10.5917 3.032C11.0717 3.85333 11.3117 4.74933 11.3117 5.72C11.3117 6.744 11.0611 7.672 10.5597 8.504C10.0691 9.32533 9.40774 9.976 8.57574 10.456C7.75441 10.9253 6.85308 11.16 5.87174 11.16ZM5.87174 7.832C6.45841 7.832 6.95441 7.62933 7.35974 7.224C7.77574 6.808 7.98374 6.30667 7.98374 5.72C7.98374 5.12267 7.77574 4.62133 7.35974 4.216C6.95441 3.81067 6.45841 3.608 5.87174 3.608C5.28508 3.608 4.78374 3.81067 4.36774 4.216C3.95174 4.62133 3.74374 5.12267 3.74374 5.72C3.74374 6.30667 3.95174 6.808 4.36774 7.224C4.78374 7.62933 5.28508 7.832 5.87174 7.832ZM24.8925 23.416C23.3778 23.416 21.9538 23.1173 20.6205 22.52C19.2872 21.912 18.1138 21.08 17.1005 20.024C16.0978 18.9573 15.3085 17.72 14.7325 16.312C14.1672 14.904 13.8845 13.4 13.8845 11.8C13.8845 10.2 14.1672 8.696 14.7325 7.288C15.3085 5.88 16.0978 4.648 17.1005 3.592C18.1138 2.52533 19.2872 1.69333 20.6205 1.096C21.9538 0.487998 23.3778 0.183998 24.8925 0.183998C26.7058 0.183998 28.3752 0.605331 29.9005 1.448C31.4258 2.29067 32.6898 3.41067 33.6925 4.808L30.7325 6.392C30.0392 5.51733 29.1805 4.81867 28.1565 4.296C27.1325 3.77333 26.0445 3.512 24.8925 3.512C23.8258 3.512 22.8285 3.73067 21.9005 4.168C20.9725 4.60533 20.1565 5.20267 19.4525 5.96C18.7485 6.71733 18.1992 7.59733 17.8045 8.6C17.4098 9.60267 17.2125 10.6693 17.2125 11.8C17.2125 12.9413 17.4098 14.0133 17.8045 15.016C18.1992 16.008 18.7485 16.888 19.4525 17.656C20.1672 18.4133 20.9885 19.0107 21.9165 19.448C22.8445 19.8747 23.8365 20.088 24.8925 20.088C26.0658 20.088 27.1592 19.8267 28.1725 19.304C29.1965 18.7707 30.0498 18.0667 30.7325 17.192L33.6925 18.808C32.6898 20.2053 31.4258 21.3253 29.9005 22.168C28.3752 23 26.7058 23.416 24.8925 23.416Z" fill="white"/>
</svg>
