<svg width="130" height="82" viewBox="0 0 130 82" fill="none" xmlns="http://www.w3.org/2000/svg">
<g filter="url(#filter0_bd_3851_1992)">
<mask id="path-1-outside-1_3851_1992" maskUnits="userSpaceOnUse" x="63.625" y="11.2361" width="52" height="33" fill="black">
<rect fill="white" x="63.625" y="11.2361" width="52" height="33"/>
<path fill-rule="evenodd" clip-rule="evenodd" d="M99.8153 26.2439C99.8153 26.698 99.792 27.1466 99.7464 27.5887C101.152 26.3707 102.987 25.6334 104.996 25.6334C109.417 25.6334 113.002 29.2076 113.002 33.6166C113.002 38.0255 109.417 41.5997 104.996 41.5997C104.994 41.5997 104.992 41.5997 104.99 41.5997H73.8745C73.8718 41.5997 73.8691 41.5997 73.8665 41.5997C73.8638 41.5997 73.8611 41.5997 73.8584 41.5997H73.8194V41.5996C69.2894 41.5743 65.625 37.9048 65.625 33.3818C65.625 28.8754 69.2625 25.2162 73.7695 25.1644C74.3197 18.4854 79.9302 13.2361 86.7702 13.2361C93.9748 13.2361 99.8153 19.0599 99.8153 26.2439Z"/>
</mask>
<path fill-rule="evenodd" clip-rule="evenodd" d="M99.8153 26.2439C99.8153 26.698 99.792 27.1466 99.7464 27.5887C101.152 26.3707 102.987 25.6334 104.996 25.6334C109.417 25.6334 113.002 29.2076 113.002 33.6166C113.002 38.0255 109.417 41.5997 104.996 41.5997C104.994 41.5997 104.992 41.5997 104.99 41.5997H73.8745C73.8718 41.5997 73.8691 41.5997 73.8665 41.5997C73.8638 41.5997 73.8611 41.5997 73.8584 41.5997H73.8194V41.5996C69.2894 41.5743 65.625 37.9048 65.625 33.3818C65.625 28.8754 69.2625 25.2162 73.7695 25.1644C74.3197 18.4854 79.9302 13.2361 86.7702 13.2361C93.9748 13.2361 99.8153 19.0599 99.8153 26.2439Z" fill="url(#paint0_linear_3851_1992)" shape-rendering="crispEdges"/>
<path d="M99.7464 27.5887L97.7569 27.3838L97.2395 32.4078L101.056 29.1001L99.7464 27.5887ZM73.8194 41.5997H71.8194V43.5997H73.8194V41.5997ZM73.8194 41.5996H75.8194V39.6107L73.8305 39.5996L73.8194 41.5996ZM73.7695 25.1644L73.7925 27.1643L75.6132 27.1433L75.7627 25.3286L73.7695 25.1644ZM101.736 27.7936C101.788 27.2836 101.815 26.7665 101.815 26.2439H97.8153C97.8153 26.6294 97.7955 27.0097 97.7569 27.3838L101.736 27.7936ZM104.996 23.6334C102.489 23.6334 100.192 24.5558 98.4366 26.0773L101.056 29.1001C102.111 28.1857 103.486 27.6334 104.996 27.6334V23.6334ZM115.002 33.6166C115.002 28.0977 110.516 23.6334 104.996 23.6334V27.6334C108.318 27.6334 111.002 30.3176 111.002 33.6166H115.002ZM104.996 43.5997C110.516 43.5997 115.002 39.1355 115.002 33.6166H111.002C111.002 36.9156 108.318 39.5997 104.996 39.5997V43.5997ZM104.99 43.5997C104.99 43.5997 104.991 43.5997 104.992 43.5997C104.993 43.5997 104.994 43.5997 104.996 43.5997V39.5997C104.995 39.5997 104.995 39.5997 104.994 39.5997C104.993 39.5997 104.992 39.5997 104.99 39.5997V43.5997ZM104.99 39.5997H73.8745V43.5997H104.99V39.5997ZM73.8665 43.5997C73.8686 43.5997 73.8707 43.5997 73.8719 43.5997C73.8734 43.5997 73.874 43.5997 73.8745 43.5997V39.5997C73.8723 39.5997 73.8703 39.5997 73.869 39.5997C73.8676 39.5997 73.867 39.5997 73.8665 39.5997V43.5997ZM73.8584 43.5997C73.8589 43.5997 73.8596 43.5997 73.861 43.5997C73.8622 43.5997 73.8643 43.5997 73.8665 43.5997V39.5997C73.866 39.5997 73.8653 39.5997 73.8639 39.5997C73.8627 39.5997 73.8606 39.5997 73.8584 39.5997V43.5997ZM73.8584 39.5997H73.8194V43.5997H73.8584V39.5997ZM75.8194 41.5997V41.5996H71.8194V41.5997H75.8194ZM63.625 33.3818C63.625 39.0109 68.184 43.5682 73.8082 43.5996L73.8305 39.5996C70.3948 39.5805 67.625 36.7986 67.625 33.3818H63.625ZM73.7465 23.1645C68.1506 23.2289 63.625 27.7733 63.625 33.3818H67.625C67.625 29.9776 70.3745 27.2036 73.7925 27.1643L73.7465 23.1645ZM86.7702 11.2361C78.8854 11.2361 72.4116 17.2877 71.7762 25.0002L75.7627 25.3286C76.2278 19.6832 80.975 15.2361 86.7702 15.2361V11.2361ZM101.815 26.2439C101.815 17.9499 95.074 11.2361 86.7702 11.2361V15.2361C92.8756 15.2361 97.8153 20.1698 97.8153 26.2439H101.815Z" fill="url(#paint1_linear_3851_1992)" mask="url(#path-1-outside-1_3851_1992)"/>
</g>
<g filter="url(#filter1_bd_3851_1992)">
<mask id="path-3-outside-2_3851_1992" maskUnits="userSpaceOnUse" x="15.002" y="11.8594" width="83" height="51" fill="black">
<rect fill="white" x="15.002" y="11.8594" width="83" height="51"/>
<path fill-rule="evenodd" clip-rule="evenodd" d="M73.3807 35.3703C73.3807 36.1212 73.3422 36.8631 73.2671 37.5941C75.5847 35.58 78.6114 34.3607 81.9229 34.3607C89.214 34.3607 95.1246 40.2713 95.1246 47.5624C95.1246 54.8534 89.214 60.764 81.9229 60.764H30.6022C30.5987 60.764 30.5953 60.764 30.5919 60.764C30.5884 60.764 30.585 60.764 30.5816 60.764H30.5142V60.7638C23.0444 60.722 17.002 54.6537 17.002 47.1741C17.002 39.722 23.0001 33.6708 30.4319 33.5851C31.3393 22.5402 40.5908 13.8594 51.8698 13.8594C63.7499 13.8594 73.3807 23.4901 73.3807 35.3703Z"/>
</mask>
<path fill-rule="evenodd" clip-rule="evenodd" d="M73.3807 35.3703C73.3807 36.1212 73.3422 36.8631 73.2671 37.5941C75.5847 35.58 78.6114 34.3607 81.9229 34.3607C89.214 34.3607 95.1246 40.2713 95.1246 47.5624C95.1246 54.8534 89.214 60.764 81.9229 60.764H30.6022C30.5987 60.764 30.5953 60.764 30.5919 60.764C30.5884 60.764 30.585 60.764 30.5816 60.764H30.5142V60.7638C23.0444 60.722 17.002 54.6537 17.002 47.1741C17.002 39.722 23.0001 33.6708 30.4319 33.5851C31.3393 22.5402 40.5908 13.8594 51.8698 13.8594C63.7499 13.8594 73.3807 23.4901 73.3807 35.3703Z" fill="url(#paint2_linear_3851_1992)" shape-rendering="crispEdges"/>
<path d="M73.2671 37.5941L71.2776 37.3898L70.7608 42.4222L74.5791 39.1037L73.2671 37.5941ZM30.5142 60.764H28.5142V62.764H30.5142V60.764ZM30.5142 60.7638H32.5142V58.775L30.5254 58.7638L30.5142 60.7638ZM30.4319 33.5851L30.455 35.585L32.2761 35.564L32.4252 33.7489L30.4319 33.5851ZM75.2567 37.7985C75.3387 36.9997 75.3807 36.1895 75.3807 35.3703H71.3807C71.3807 36.0528 71.3457 36.7265 71.2776 37.3898L75.2567 37.7985ZM81.9229 32.3607C78.1112 32.3607 74.6227 33.7663 71.9552 36.0846L74.5791 39.1037C76.5466 37.3938 79.1116 36.3607 81.9229 36.3607V32.3607ZM97.1246 47.5624C97.1246 39.1667 90.3186 32.3607 81.9229 32.3607V36.3607C88.1094 36.3607 93.1246 41.3759 93.1246 47.5624H97.1246ZM81.9229 62.764C90.3186 62.764 97.1246 55.958 97.1246 47.5624H93.1246C93.1246 53.7489 88.1094 58.764 81.9229 58.764V62.764ZM81.9229 58.764H30.6022V62.764H81.9229V58.764ZM30.5919 62.764C30.5942 62.764 30.5965 62.764 30.5981 62.764C30.5999 62.764 30.6011 62.764 30.6022 62.764V58.764C30.5998 58.764 30.5975 58.764 30.5959 58.764C30.5941 58.764 30.5929 58.764 30.5919 58.764V62.764ZM30.5816 62.764C30.5826 62.764 30.5838 62.764 30.5856 62.764C30.5872 62.764 30.5895 62.764 30.5919 62.764V58.764C30.5908 58.764 30.5896 58.764 30.5878 58.764C30.5862 58.764 30.5839 58.764 30.5816 58.764V62.764ZM30.5816 58.764H30.5142V62.764H30.5816V58.764ZM32.5142 60.764V60.7638H28.5142V60.764H32.5142ZM15.002 47.1741C15.002 55.7545 21.9337 62.7158 30.503 62.7638L30.5254 58.7638C24.1552 58.7282 19.002 53.5529 19.002 47.1741H15.002ZM30.4089 31.5852C21.8828 31.6836 15.002 38.6251 15.002 47.1741H19.002C19.002 40.8188 24.1174 35.6581 30.455 35.585L30.4089 31.5852ZM51.8698 11.8594C39.5411 11.8594 29.4305 21.3474 28.4386 33.4213L32.4252 33.7489C33.248 23.7329 41.6405 15.8594 51.8698 15.8594V11.8594ZM75.3807 35.3703C75.3807 22.3856 64.8545 11.8594 51.8698 11.8594V15.8594C62.6454 15.8594 71.3807 24.5947 71.3807 35.3703H75.3807Z" fill="url(#paint3_linear_3851_1992)" mask="url(#path-3-outside-2_3851_1992)"/>
</g>
<defs>
<filter id="filter0_bd_3851_1992" x="48.625" y="0.236084" width="81.377" height="62.3635" filterUnits="userSpaceOnUse" color-interpolation-filters="sRGB">
<feFlood flood-opacity="0" result="BackgroundImageFix"/>
<feGaussianBlur in="BackgroundImageFix" stdDeviation="5"/>
<feComposite in2="SourceAlpha" operator="in" result="effect1_backgroundBlur_3851_1992"/>
<feColorMatrix in="SourceAlpha" type="matrix" values="0 0 0 0 0 0 0 0 0 0 0 0 0 0 0 0 0 0 127 0" result="hardAlpha"/>
<feOffset dy="4"/>
<feGaussianBlur stdDeviation="7.5"/>
<feComposite in2="hardAlpha" operator="out"/>
<feColorMatrix type="matrix" values="0 0 0 0 0 0 0 0 0 0 0 0 0 0 0 0 0 0 0.1 0"/>
<feBlend mode="normal" in2="effect1_backgroundBlur_3851_1992" result="effect2_dropShadow_3851_1992"/>
<feBlend mode="normal" in="SourceGraphic" in2="effect2_dropShadow_3851_1992" result="shape"/>
</filter>
<filter id="filter1_bd_3851_1992" x="0.00195312" y="0.859375" width="112.123" height="80.9045" filterUnits="userSpaceOnUse" color-interpolation-filters="sRGB">
<feFlood flood-opacity="0" result="BackgroundImageFix"/>
<feGaussianBlur in="BackgroundImageFix" stdDeviation="5"/>
<feComposite in2="SourceAlpha" operator="in" result="effect1_backgroundBlur_3851_1992"/>
<feColorMatrix in="SourceAlpha" type="matrix" values="0 0 0 0 0 0 0 0 0 0 0 0 0 0 0 0 0 0 127 0" result="hardAlpha"/>
<feOffset dy="4"/>
<feGaussianBlur stdDeviation="7.5"/>
<feComposite in2="hardAlpha" operator="out"/>
<feColorMatrix type="matrix" values="0 0 0 0 0 0 0 0 0 0 0 0 0 0 0 0 0 0 0.1 0"/>
<feBlend mode="normal" in2="effect1_backgroundBlur_3851_1992" result="effect2_dropShadow_3851_1992"/>
<feBlend mode="normal" in="SourceGraphic" in2="effect2_dropShadow_3851_1992" result="shape"/>
</filter>
<linearGradient id="paint0_linear_3851_1992" x1="80.3502" y1="13.1178" x2="91.69" y2="41.7403" gradientUnits="userSpaceOnUse">
<stop stop-color="white"/>
<stop offset="0.708333" stop-color="#9DDCFF" stop-opacity="0.69"/>
</linearGradient>
<linearGradient id="paint1_linear_3851_1992" x1="87.7768" y1="3.41416" x2="103.445" y2="53.2349" gradientUnits="userSpaceOnUse">
<stop stop-color="white"/>
<stop offset="0.713542" stop-color="#85C6EC" stop-opacity="0.71"/>
</linearGradient>
<linearGradient id="paint2_linear_3851_1992" x1="41.2833" y1="13.6638" x2="60.075" y2="60.9596" gradientUnits="userSpaceOnUse">
<stop stop-color="white"/>
<stop offset="0.708333" stop-color="#9DDCFF" stop-opacity="0.69"/>
</linearGradient>
<linearGradient id="paint3_linear_3851_1992" x1="53.5296" y1="-2.38303" x2="79.5001" y2="79.9624" gradientUnits="userSpaceOnUse">
<stop stop-color="white"/>
<stop offset="0.713542" stop-color="#85C6EC" stop-opacity="0.71"/>
</linearGradient>
</defs>
</svg>
