<svg width="28" height="23" viewBox="0 0 28 23" fill="none" xmlns="http://www.w3.org/2000/svg">
<path d="M5.87174 11.16C4.84774 11.16 3.92508 10.9093 3.10374 10.408C2.28241 9.896 1.62641 9.22933 1.13574 8.408C0.655742 7.576 0.415742 6.68 0.415742 5.72C0.415742 4.728 0.655742 3.82133 1.13574 3C1.62641 2.17867 2.28241 1.52267 3.10374 1.032C3.93574 0.530666 4.85841 0.279999 5.87174 0.279999C6.90641 0.279999 7.83441 0.535999 8.65574 1.048C9.47708 1.54933 10.1224 2.21067 10.5917 3.032C11.0717 3.85333 11.3117 4.74933 11.3117 5.72C11.3117 6.744 11.0611 7.672 10.5597 8.504C10.0691 9.32533 9.40774 9.976 8.57574 10.456C7.75441 10.9253 6.85308 11.16 5.87174 11.16ZM5.87174 7.832C6.45841 7.832 6.95441 7.62933 7.35974 7.224C7.77574 6.808 7.98374 6.30667 7.98374 5.72C7.98374 5.12267 7.77574 4.62133 7.35974 4.216C6.95441 3.81067 6.45841 3.608 5.87174 3.608C5.28508 3.608 4.78374 3.81067 4.36774 4.216C3.95174 4.62133 3.74374 5.12267 3.74374 5.72C3.74374 6.30667 3.95174 6.808 4.36774 7.224C4.78374 7.62933 5.28508 7.832 5.87174 7.832ZM14.5245 23V0.599998H27.7245V3.928H17.8525V9.336H26.1885V12.664H17.8525V23H14.5245Z" fill="white"/>
</svg>
