<svg width="29" height="28" viewBox="0 0 29 28" fill="none" xmlns="http://www.w3.org/2000/svg">
<path d="M28.4777 11.2581H27.35V11.2H14.75V16.8H22.6621C21.5078 20.0599 18.4061 22.4 14.75 22.4C10.1111 22.4 6.35 18.6389 6.35 14C6.35 9.3611 10.1111 5.6 14.75 5.6C16.8913 5.6 18.8394 6.4078 20.3227 7.7273L24.2826 3.7674C21.7822 1.4371 18.4376 0 14.75 0C7.0185 0 0.75 6.2685 0.75 14C0.75 21.7315 7.0185 28 14.75 28C22.4815 28 28.75 21.7315 28.75 14C28.75 13.0613 28.6534 12.145 28.4777 11.2581Z" fill="#FFC107"/>
<path d="M2.36328 7.4837L6.96298 10.857C8.20758 7.7756 11.2218 5.6 14.7491 5.6C16.8904 5.6 18.8385 6.4078 20.3218 7.7273L24.2817 3.7674C21.7813 1.4371 18.4367 0 14.7491 0C9.37168 0 4.70828 3.0359 2.36328 7.4837Z" fill="#FF3D00"/>
<path d="M14.7506 28.0001C18.3668 28.0001 21.6526 26.6162 24.1369 24.3657L19.8039 20.6991C18.3511 21.804 16.5758 22.4015 14.7506 22.4001C11.1092 22.4001 8.01731 20.0782 6.85251 16.8379L2.28711 20.3554C4.60411 24.8893 9.30951 28.0001 14.7506 28.0001Z" fill="#4CAF50"/>
<path d="M28.4777 11.2581H27.35V11.2H14.75V16.8H22.6621C22.1099 18.3514 21.1153 19.7072 19.8012 20.6997L19.8033 20.6983L24.1363 24.3649C23.8297 24.6435 28.75 21 28.75 14C28.75 13.0613 28.6534 12.145 28.4777 11.2581Z" fill="#1976D2"/>
</svg>
