<svg width="19" height="64" viewBox="0 0 19 64" fill="none" xmlns="http://www.w3.org/2000/svg">
<path d="M12.758 7.02304C12.758 5.29874 11.3602 3.90092 9.63587 3.90092C7.91158 3.90092 6.51376 5.29874 6.51376 7.02304V45.0214C7.49029 44.6762 8.54115 44.4884 9.63587 44.4884C10.7306 44.4884 11.7815 44.6762 12.758 45.0214V41.3663H11.1969C10.3348 41.3663 9.63587 40.6674 9.63587 39.8052C9.63587 38.9431 10.3348 38.2442 11.1969 38.2442H12.758V35.1221H11.1969C10.3348 35.1221 9.63587 34.4232 9.63587 33.561C9.63587 32.6989 10.3348 32 11.1969 32H12.758V28.8778H11.1969C10.3348 28.8778 9.63587 28.1789 9.63587 27.3168C9.63587 26.4546 10.3348 25.7557 11.1969 25.7557H12.758V22.6336H11.1969C10.3348 22.6336 9.63587 21.9347 9.63587 21.0726C9.63587 20.2104 10.3348 19.5115 11.1969 19.5115H12.758V16.3894H11.1969C10.3348 16.3894 9.63587 15.6905 9.63587 14.8283C9.63587 13.9662 10.3348 13.2673 11.1969 13.2673H12.758V10.1452H11.1969C10.3348 10.1452 9.63587 9.44624 9.63587 8.5841C9.63587 7.72195 10.3348 7.02304 11.1969 7.02304H12.758ZM3.39165 46.8734V7.02304C3.39165 3.57445 6.18728 0.778809 9.63587 0.778809C13.0845 0.778809 15.8801 3.57445 15.8801 7.02304V46.8734C17.7963 48.5884 19.0022 51.0808 19.0022 53.8548C19.0022 59.0276 14.8088 63.2211 9.63587 63.2211C4.46299 63.2211 0.269531 59.0276 0.269531 53.8548C0.269531 51.0808 1.47545 48.5884 3.39165 46.8734ZM5.86211 48.8795C4.36095 50.0199 3.39165 51.8241 3.39165 53.8548C3.39165 57.3034 6.18728 60.099 9.63587 60.099C13.0845 60.099 15.8801 57.3034 15.8801 53.8548C15.8801 51.8241 14.9108 50.0199 13.4096 48.8795C13.3913 48.8663 13.3732 48.8528 13.3555 48.8388C12.3165 48.0671 11.0295 47.6105 9.63587 47.6105C8.24222 47.6105 6.9552 48.0671 5.91624 48.8388C5.8985 48.8528 5.88045 48.8663 5.86211 48.8795ZM9.63587 56.9769C7.91158 56.9769 6.51376 55.5791 6.51376 53.8548C6.51376 52.1305 7.91158 50.7326 9.63587 50.7326C11.3602 50.7326 12.758 52.1305 12.758 53.8548C12.758 55.5791 11.3602 56.9769 9.63587 56.9769Z" fill="#EFE1E1"/>
</svg>
